<svg width="210" height="36" viewBox="0 0 210 36" fill="none" xmlns="http://www.w3.org/2000/svg">
    <path d="M12.8154 18.3739C12.9236 16.6113 12.9236 16.451 12.9236 15.9169C12.9236 11.27 10.5443 8.70623 6.3266 8.70623C4.27181 8.70623 2.6496 9.45401 1.45998 10.9496C0.378514 12.2315 0 13.6736 0 16.184V28.5223C0 31.0326 0.378514 32.4748 1.45998 33.7567C2.6496 35.2522 4.27181 36 6.3266 36C10.5984 36 12.9236 33.4362 12.9236 28.7359C12.9236 28.095 12.9236 27.9881 12.8154 25.905H8.1651V27.4006V28.5757C8.1651 30.9258 7.73251 31.727 6.38067 31.727C5.19105 31.727 4.70439 30.9258 4.70439 29.003V15.7033C4.70439 13.7804 5.19105 12.9792 6.38067 12.9792C7.73251 12.9792 8.1651 13.7804 8.1651 16.1306V17.3056V18.3739H12.8154Z" fill="white"/>
    <path d="M29.1894 16.184C29.1894 11.27 27.0265 8.70623 22.8088 8.70623C18.537 8.70623 16.374 11.27 16.374 16.184V28.5223C16.374 33.4362 18.537 36 22.8088 36C27.0265 36 29.1894 33.4362 29.1894 28.5223V16.184ZM21.0784 15.4362C21.0784 13.8872 21.6732 12.9792 22.8088 12.9792C23.8902 12.9792 24.485 13.8872 24.485 15.4362V29.27C24.485 30.819 23.8902 31.727 22.8088 31.727C21.6732 31.727 21.0784 30.819 21.0784 29.27V15.4362Z" fill="white"/>
    <path d="M45.8275 35.6261V0H41.1231V11.5905C39.3387 9.50742 38.095 8.70623 36.6891 8.70623C35.5535 8.70623 34.418 9.34718 33.8772 10.2552C33.2824 11.1632 33.1202 12.2315 33.1202 14.9555V29.7507C33.1202 32.5282 33.2824 33.543 33.8772 34.451C34.418 35.3591 35.6076 36 36.6891 36C38.149 36 39.3387 35.1988 41.1231 33.1157L41.2312 35.6261H45.8275ZM41.1231 30.6588C40.1498 31.4599 39.6631 31.727 39.0142 31.727C38.2031 31.727 37.8246 31.0326 37.8246 29.7507V14.9555C37.8246 13.6202 38.2031 12.9792 39.0142 12.9792C39.6631 12.9792 40.1498 13.2463 41.1231 14.0475V30.6588Z" fill="white"/>
    <path d="M57.868 26.3323V27.4006V28.5757C57.868 30.7656 57.3273 31.727 56.0836 31.727C54.894 31.727 54.4073 30.9258 54.4073 29.003V23.1276H62.5183V15.3294C62.5183 11.2166 60.1391 8.70623 56.1917 8.70623C51.8659 8.70623 49.7029 11.1632 49.7029 16.1306V28.5223C49.7029 30.9792 50.0814 32.4214 51.1629 33.7567C52.3525 35.2522 53.9747 36 56.0295 36C60.2473 36 62.5724 33.4362 62.5724 28.7893C62.5724 28.1484 62.5724 28.1484 62.5183 26.3323H57.868ZM54.4073 19.4421V14.9555C54.4073 13.727 55.0562 12.9792 56.1377 12.9792C57.2191 12.9792 57.8139 13.6736 57.8139 14.9555V19.4421H54.4073Z" fill="white"/>
    <path d="M73.91 35.6261H78.9388V27.6677H80.9395V23.0208H78.9388V0H73.91L65.7449 23.0208V27.6677H73.91V35.6261ZM73.91 23.0208H69.9626L73.91 10.1484V23.0208Z" fill="white"/>
    <path d="M97.5898 18.3739C97.698 16.6113 97.698 16.451 97.698 15.9169C97.698 11.27 95.3188 8.70623 91.101 8.70623C89.0462 8.70623 87.424 9.45401 86.2344 10.9496C85.1529 12.2315 84.7744 13.6736 84.7744 16.184V28.5223C84.7744 31.0326 85.1529 32.4748 86.2344 33.7567C87.424 35.2522 89.0462 36 91.101 36C95.3728 36 97.698 33.4362 97.698 28.7359C97.698 28.095 97.698 27.9881 97.5898 25.905H92.9395V27.4006V28.5757C92.9395 30.9258 92.5069 31.727 91.1551 31.727C89.9655 31.727 89.4788 30.9258 89.4788 29.003V15.7033C89.4788 13.7804 89.9655 12.9792 91.1551 12.9792C92.5069 12.9792 92.9395 13.7804 92.9395 16.1306V17.3056V18.3739H97.5898Z" fill="white"/>
    <path d="M113.964 16.184C113.964 11.27 111.801 8.70623 107.583 8.70623C103.311 8.70623 101.148 11.27 101.148 16.184V28.5223C101.148 33.4362 103.311 36 107.583 36C111.801 36 113.964 33.4362 113.964 28.5223V16.184ZM105.853 15.4362C105.853 13.8872 106.448 12.9792 107.583 12.9792C108.665 12.9792 109.259 13.8872 109.259 15.4362V29.27C109.259 30.819 108.665 31.727 107.583 31.727C106.448 31.727 105.853 30.819 105.853 29.27V15.4362Z" fill="white"/>
    <path d="M130.277 9.08012H125.735L123.518 24.4095L121.301 9.08012H116.813L121.301 35.6261H125.735L130.277 9.08012Z" fill="white"/>
    <path d="M138.234 9.08012H133.529V35.6261H138.234V9.08012ZM138.234 0H133.529V4.75371H138.234V0Z" fill="white"/>
    <path d="M154.954 35.6261V0H150.249V11.5905C148.465 9.50742 147.221 8.70623 145.815 8.70623C144.68 8.70623 143.544 9.34718 143.004 10.2552C142.409 11.1632 142.246 12.2315 142.246 14.9555V29.7507C142.246 32.5282 142.409 33.543 143.004 34.451C143.544 35.3591 144.734 36 145.815 36C147.275 36 148.465 35.1988 150.249 33.1157L150.358 35.6261H154.954ZM150.249 30.6588C149.276 31.4599 148.789 31.727 148.141 31.727C147.329 31.727 146.951 31.0326 146.951 29.7507V14.9555C146.951 13.6202 147.329 12.9792 148.141 12.9792C148.789 12.9792 149.276 13.2463 150.249 14.0475V30.6588Z" fill="white"/>
    <rect x="166.741" y="9.81012" width="28.8392" height="4.45104" fill="#B56AFF"/>
    <rect x="173.951" y="16.9318" width="28.8392" height="4.45104" fill="#B56AFF"/>
    <rect x="181.161" y="24.0535" width="4.50612" height="4.45104" fill="#B56AFF"/>
    <rect x="188.371" y="24.0535" width="21.6294" height="4.45104" fill="#B56AFF"/>
    <rect x="166.741" y="31.1751" width="28.8392" height="4.45104" fill="#B56AFF"/>
    <rect x="198.284" y="31.1751" width="6.30858" height="4.45104" fill="#B56AFF"/>
</svg>
