<svg width="234" height="41" viewBox="0 0 234 41" fill="none" xmlns="http://www.w3.org/2000/svg">
    <path d="M14.22 20.64C14.34 18.66 14.34 18.48 14.34 17.88C14.34 12.66 11.7 9.78 7.02 9.78C4.74 9.78 2.94 10.62 1.62 12.3C0.42 13.74 0 15.36 0 18.18V32.04C0 34.86 0.42 36.48 1.62 37.92C2.94 39.6 4.74 40.44 7.02 40.44C11.76 40.44 14.34 37.56 14.34 32.28C14.34 31.56 14.34 31.44 14.22 29.1H9.06V30.78V32.1C9.06 34.74 8.58 35.64 7.08 35.64C5.76 35.64 5.22 34.74 5.22 32.58V17.64C5.22 15.48 5.76 14.58 7.08 14.58C8.58 14.58 9.06 15.48 9.06 18.12V19.44V20.64H14.22Z" fill="#2F3B45"/>
    <path d="M32.3886 18.18C32.3886 12.66 29.9886 9.78 25.3086 9.78C20.5686 9.78 18.1686 12.66 18.1686 18.18V32.04C18.1686 37.56 20.5686 40.44 25.3086 40.44C29.9886 40.44 32.3886 37.56 32.3886 32.04V18.18ZM23.3886 17.34C23.3886 15.6 24.0486 14.58 25.3086 14.58C26.5086 14.58 27.1686 15.6 27.1686 17.34V32.88C27.1686 34.62 26.5086 35.64 25.3086 35.64C24.0486 35.64 23.3886 34.62 23.3886 32.88V17.34Z" fill="#2F3B45"/>
    <path d="M50.8502 40.02V0H45.6302V13.02C43.6502 10.68 42.2702 9.78 40.7102 9.78C39.4502 9.78 38.1902 10.5 37.5902 11.52C36.9302 12.54 36.7502 13.74 36.7502 16.8V33.42C36.7502 36.54 36.9302 37.68 37.5902 38.7C38.1902 39.72 39.5102 40.44 40.7102 40.44C42.3302 40.44 43.6502 39.54 45.6302 37.2L45.7502 40.02H50.8502ZM45.6302 34.44C44.5502 35.34 44.0102 35.64 43.2902 35.64C42.3902 35.64 41.9702 34.86 41.9702 33.42V16.8C41.9702 15.3 42.3902 14.58 43.2902 14.58C44.0102 14.58 44.5502 14.88 45.6302 15.78V34.44Z" fill="#2F3B45"/>
    <path d="M64.2104 29.58V30.78V32.1C64.2104 34.56 63.6104 35.64 62.2304 35.64C60.9104 35.64 60.3704 34.74 60.3704 32.58V25.98H69.3704V17.22C69.3704 12.6 66.7304 9.78 62.3504 9.78C57.5504 9.78 55.1504 12.54 55.1504 18.12V32.04C55.1504 34.8 55.5704 36.42 56.7704 37.92C58.0904 39.6 59.8904 40.44 62.1704 40.44C66.8504 40.44 69.4304 37.56 69.4304 32.34C69.4304 31.62 69.4304 31.62 69.3704 29.58H64.2104ZM60.3704 21.84V16.8C60.3704 15.42 61.0904 14.58 62.2904 14.58C63.4904 14.58 64.1504 15.36 64.1504 16.8V21.84H60.3704Z" fill="#2F3B45"/>
    <path d="M82.0106 40.02H87.5906V31.08H89.8106V25.86H87.5906V0H82.0106L72.9506 25.86V31.08H82.0106V40.02ZM82.0106 25.86H77.6306L82.0106 11.4V25.86Z" fill="#2F3B45"/>
    <path d="M108.286 20.64C108.406 18.66 108.406 18.48 108.406 17.88C108.406 12.66 105.766 9.78 101.086 9.78C98.8058 9.78 97.0058 10.62 95.6858 12.3C94.4858 13.74 94.0658 15.36 94.0658 18.18V32.04C94.0658 34.86 94.4858 36.48 95.6858 37.92C97.0058 39.6 98.8058 40.44 101.086 40.44C105.826 40.44 108.406 37.56 108.406 32.28C108.406 31.56 108.406 31.44 108.286 29.1H103.126V30.78V32.1C103.126 34.74 102.646 35.64 101.146 35.64C99.8258 35.64 99.2858 34.74 99.2858 32.58V17.64C99.2858 15.48 99.8258 14.58 101.146 14.58C102.646 14.58 103.126 15.48 103.126 18.12V19.44V20.64H108.286Z" fill="#2F3B45"/>
    <path d="M126.454 18.18C126.454 12.66 124.054 9.78 119.374 9.78C114.634 9.78 112.234 12.66 112.234 18.18V32.04C112.234 37.56 114.634 40.44 119.374 40.44C124.054 40.44 126.454 37.56 126.454 32.04V18.18ZM117.454 17.34C117.454 15.6 118.114 14.58 119.374 14.58C120.574 14.58 121.234 15.6 121.234 17.34V32.88C121.234 34.62 120.574 35.64 119.374 35.64C118.114 35.64 117.454 34.62 117.454 32.88V17.34Z" fill="#2F3B45"/>
    <path d="M144.556 10.2H139.516L137.056 27.42L134.596 10.2H129.616L134.596 40.02H139.516L144.556 10.2Z" fill="#2F3B45"/>
    <path d="M153.384 10.2H148.164V40.02H153.384V10.2ZM153.384 0H148.164V5.34H153.384V0Z" fill="#2F3B45"/>
    <path d="M171.937 40.02V0H166.717V13.02C164.737 10.68 163.357 9.78 161.797 9.78C160.537 9.78 159.277 10.5 158.677 11.52C158.017 12.54 157.837 13.74 157.837 16.8V33.42C157.837 36.54 158.017 37.68 158.677 38.7C159.277 39.72 160.597 40.44 161.797 40.44C163.417 40.44 164.737 39.54 166.717 37.2L166.837 40.02H171.937ZM166.717 34.44C165.637 35.34 165.097 35.64 164.377 35.64C163.477 35.64 163.057 34.86 163.057 33.42V16.8C163.057 15.3 163.477 14.58 164.377 14.58C165.097 14.58 165.637 14.88 166.717 15.78V34.44Z" fill="#2F3B45"/>
    <rect x="185.016" y="11.02" width="32" height="5" fill="#B56AFF"/>
    <rect x="193.016" y="19.02" width="32" height="5" fill="#B56AFF"/>
    <rect x="201.016" y="27.02" width="5" height="5" fill="#B56AFF"/>
    <rect x="209.016" y="27.02" width="24" height="5" fill="#B56AFF"/>
    <rect x="185.016" y="35.02" width="32" height="5" fill="#B56AFF"/>
    <rect x="220.016" y="35.02" width="7" height="5" fill="#B56AFF"/>
</svg>
